<svg id="svg" version="1.1" xmlns="http://www.w3.org/2000/svg" xmlns:xlink="http://www.w3.org/1999/xlink" width="400" height="189.31516672642525" viewBox="0, 0, 400,189.31516672642525"><g id="svgg"><path id="path0" d="M5.545 105.079 C 3.390 105.686,1.851 107.356,1.530 109.436 C 1.245 111.275,1.391 112.023,4.435 124.317 C 5.856 130.055,7.694 137.487,8.519 140.833 C 13.865 162.491,13.772 162.171,15.317 164.290 C 17.400 167.145,22.803 167.512,25.567 164.986 C 27.164 163.527,27.915 161.869,29.335 156.667 C 29.598 155.704,30.309 153.117,30.915 150.917 C 31.521 148.717,33.028 143.204,34.265 138.667 C 35.501 134.129,36.771 129.479,37.086 128.333 C 37.402 127.188,37.995 125.023,38.404 123.523 C 38.813 122.024,39.180 120.764,39.220 120.724 C 39.260 120.684,39.458 121.274,39.661 122.034 C 39.863 122.795,40.354 124.617,40.751 126.083 C 41.148 127.550,42.008 130.737,42.663 133.167 C 43.317 135.596,44.067 138.371,44.330 139.333 C 44.593 140.296,45.047 141.983,45.340 143.083 C 45.633 144.183,46.048 145.721,46.262 146.500 C 46.475 147.279,47.185 149.904,47.839 152.333 C 49.291 157.730,50.397 161.424,50.902 162.566 C 53.102 167.540,60.462 168.176,63.482 163.654 C 64.617 161.954,64.665 161.777,72.102 131.667 C 73.336 126.671,74.600 121.571,74.910 120.333 C 77.127 111.493,77.325 109.752,76.330 107.839 C 74.661 104.627,69.720 103.847,67.348 106.421 C 65.950 107.937,65.787 108.474,63.243 120.000 C 63.030 120.962,62.594 122.912,62.272 124.333 C 61.950 125.754,61.274 128.754,60.769 131.000 C 60.264 133.246,59.546 136.433,59.174 138.083 C 58.802 139.733,58.189 142.471,57.812 144.167 C 57.435 145.862,57.075 147.347,57.011 147.466 C 56.903 147.667,56.469 146.166,54.055 137.250 C 53.559 135.417,52.936 133.129,52.670 132.167 C 52.405 131.204,51.428 127.604,50.499 124.167 C 46.334 108.758,46.320 108.718,44.542 106.926 C 41.730 104.092,36.487 104.160,33.696 107.066 C 32.272 108.549,31.581 110.099,30.422 114.417 C 30.200 115.242,29.757 116.892,29.438 118.083 C 29.118 119.275,28.359 122.087,27.751 124.333 C 27.144 126.579,26.468 129.092,26.251 129.917 C 26.034 130.742,25.582 132.429,25.246 133.667 C 24.000 138.253,22.333 144.457,21.647 147.058 C 21.376 148.089,21.611 148.951,19.063 137.583 C 17.313 129.772,16.776 127.381,15.584 122.083 C 15.069 119.792,14.422 116.904,14.146 115.667 C 12.441 108.013,11.653 106.204,9.652 105.343 C 8.580 104.882,6.680 104.760,5.545 105.079 M159.750 104.949 C 146.432 105.654,138.355 113.854,140.253 124.742 C 141.574 132.313,146.746 135.957,161.303 139.571 C 171.881 142.198,174.250 143.923,174.250 149.000 C 174.250 154.281,169.633 157.682,162.417 157.717 C 155.981 157.749,152.768 155.526,150.053 149.167 C 148.157 144.724,146.406 143.358,143.250 143.860 C 135.569 145.082,138.671 157.885,147.964 163.312 C 156.203 168.124,170.533 167.753,178.536 162.521 C 185.691 157.845,188.510 148.089,184.924 140.417 C 182.388 134.989,177.449 132.184,164.833 129.007 C 154.090 126.301,151.326 124.608,151.274 120.703 C 151.218 116.406,155.327 113.622,161.750 113.606 C 166.028 113.594,167.916 114.247,170.019 116.463 C 171.146 117.650,171.658 118.419,173.500 121.685 C 174.910 124.186,176.162 125.064,178.333 125.075 C 183.987 125.104,185.590 118.254,181.266 112.548 C 177.110 107.064,169.640 104.426,159.750 104.949 M90.503 106.026 C 88.172 106.364,86.436 107.640,85.649 109.592 L 85.250 110.583 85.250 135.667 L 85.250 160.750 85.645 161.833 C 86.381 163.852,87.690 164.942,89.953 165.421 C 91.700 165.792,126.320 165.782,127.744 165.411 C 132.219 164.246,132.547 158.184,128.230 156.417 C 127.441 156.094,126.971 156.083,112.423 156.036 C 100.888 155.999,97.399 155.941,97.300 155.786 C 97.230 155.674,97.171 146.415,97.169 135.208 L 97.167 114.833 112.398 114.833 L 127.630 114.833 128.423 114.287 C 131.411 112.228,130.793 107.691,127.333 106.288 L 126.417 105.917 109.000 105.893 C 98.857 105.879,91.132 105.935,90.503 106.026 M195.364 106.020 C 189.370 107.017,189.296 114.719,195.270 115.823 C 195.849 115.930,199.015 116.000,203.278 116.000 L 210.328 116.000 210.372 139.042 L 210.417 162.083 210.833 163.083 C 212.660 167.467,219.156 167.957,221.376 163.878 C 222.362 162.066,222.328 162.976,222.331 138.458 L 222.333 116.000 229.394 116.000 C 233.440 116.000,236.833 115.928,237.340 115.832 C 243.486 114.666,243.343 107.014,237.156 106.010 C 235.824 105.794,196.666 105.803,195.364 106.020 " stroke="none" fill="#04acec" fill-rule="evenodd"></path><path id="path1" d="M318.833 105.024 C 315.124 105.636,313.466 107.673,310.576 115.167 C 309.989 116.687,309.066 119.028,305.616 127.750 C 304.746 129.950,303.546 132.987,302.950 134.500 C 302.354 136.012,301.289 138.712,300.583 140.500 C 299.878 142.287,298.813 144.987,298.217 146.500 C 297.620 148.012,296.357 151.210,295.409 153.605 C 293.431 158.606,293.166 159.501,293.168 161.191 C 293.173 164.834,297.028 167.506,300.728 166.430 C 302.906 165.797,303.631 164.531,306.980 155.500 C 307.711 153.529,308.360 151.785,308.422 151.625 C 308.529 151.351,309.268 151.333,320.665 151.333 L 332.795 151.333 333.139 152.208 C 333.328 152.690,334.095 154.696,334.843 156.667 C 336.791 161.802,338.079 164.407,339.140 165.361 C 341.850 167.797,346.531 166.676,348.123 163.209 C 349.038 161.214,348.729 159.532,346.366 153.644 C 344.990 150.215,344.422 148.814,341.784 142.333 C 341.280 141.096,340.231 138.508,339.452 136.583 C 338.673 134.658,337.456 131.658,336.747 129.917 C 333.435 121.775,332.027 118.291,330.585 114.667 C 327.226 106.228,324.598 104.071,318.833 105.024 M254.583 105.998 C 251.189 106.475,249.498 108.196,248.993 111.692 C 248.768 113.248,248.786 159.305,249.013 160.932 C 249.857 166.999,256.768 168.910,259.950 163.956 C 260.954 162.392,261.000 161.858,261.000 151.690 L 261.000 142.529 268.625 142.454 C 279.028 142.352,281.609 141.928,286.177 139.569 C 297.166 133.893,297.560 114.981,286.822 108.665 C 284.679 107.404,282.550 106.738,279.000 106.219 C 277.006 105.927,256.419 105.741,254.583 105.998 M273.500 115.172 C 279.911 116.001,282.898 119.533,282.166 125.419 C 281.409 131.513,277.288 133.443,265.333 133.301 L 261.083 133.250 261.040 124.125 L 260.997 115.000 266.624 115.005 C 269.718 115.008,272.813 115.083,273.500 115.172 M320.811 118.458 C 321.042 119.034,322.930 124.188,324.001 127.167 C 324.446 128.404,325.865 132.293,327.155 135.808 C 328.445 139.323,329.500 142.229,329.500 142.266 C 329.500 142.303,325.525 142.333,320.667 142.333 C 313.509 142.333,311.833 142.292,311.833 142.116 C 311.833 141.996,312.160 141.002,312.560 139.907 C 313.282 137.926,314.139 135.542,316.242 129.667 C 316.849 127.971,317.635 125.796,317.990 124.833 C 318.345 123.871,319.036 121.940,319.526 120.542 C 320.476 117.832,320.526 117.751,320.811 118.458 " stroke="none" fill="#96c536" fill-rule="evenodd"></path><path id="path2" d="M0.000 94.583 L 0.000 189.167 39.333 189.167 L 78.667 189.167 78.667 106.347 L 78.667 23.527 82.292 21.658 C 88.476 18.469,90.684 17.327,92.583 16.334 C 93.592 15.807,95.767 14.682,97.417 13.833 C 99.067 12.985,101.242 11.860,102.250 11.334 C 104.354 10.235,107.674 8.517,111.750 6.417 C 113.308 5.614,115.408 4.527,116.417 4.000 C 121.744 1.219,123.821 0.167,123.985 0.167 C 124.114 0.167,124.167 3.083,124.167 10.250 L 124.167 20.333 243.667 20.333 L 363.167 20.333 363.167 22.382 L 363.167 24.430 365.875 27.096 L 368.583 29.762 371.246 31.006 C 372.711 31.690,375.186 32.860,376.746 33.605 L 379.583 34.959 379.667 40.771 L 379.751 46.583 380.643 51.250 L 381.535 55.917 383.974 58.375 L 386.412 60.833 389.249 60.833 L 392.086 60.833 396.000 64.750 L 399.914 68.666 396.800 71.792 L 393.687 74.917 392.832 77.250 C 392.362 78.533,391.645 80.470,391.239 81.554 L 390.502 83.525 384.517 89.471 C 381.225 92.741,377.742 96.054,376.777 96.833 C 375.811 97.612,375.016 98.301,375.010 98.363 C 375.005 98.426,376.313 99.780,377.917 101.372 C 379.521 102.965,380.833 104.389,380.833 104.538 C 380.833 104.687,380.449 105.808,379.980 107.029 L 379.127 109.250 376.774 111.625 L 374.421 114.000 373.294 114.000 L 372.167 114.000 372.167 119.417 L 372.167 124.833 374.294 124.833 L 376.422 124.833 378.294 126.711 L 380.167 128.589 380.167 132.628 L 380.167 136.667 382.500 136.667 L 384.833 136.667 384.833 139.127 L 384.833 141.588 387.042 143.792 L 389.251 145.997 393.334 147.633 L 397.417 149.269 397.417 153.156 L 397.417 157.043 392.646 159.574 C 390.023 160.967,387.473 162.371,386.980 162.694 C 385.489 163.673,382.972 165.303,378.417 168.241 L 374.083 171.035 368.833 176.252 L 363.583 181.469 362.833 181.235 C 360.428 180.485,350.056 177.448,349.917 177.453 C 349.825 177.457,347.988 178.492,345.833 179.754 C 338.076 184.299,339.506 183.544,331.000 187.585 C 329.304 188.391,327.885 189.077,327.847 189.109 C 327.809 189.140,344.028 189.167,363.889 189.167 L 400.000 189.167 400.000 94.583 L 400.000 0.000 200.000 0.000 L 0.000 0.000 0.000 94.583 M117.000 8.431 C 115.487 9.215,112.862 10.573,111.167 11.449 C 105.524 14.362,97.813 18.356,92.250 21.246 C 89.225 22.817,85.869 24.549,84.792 25.093 L 82.835 26.083 82.834 105.542 L 82.833 185.000 204.756 185.000 L 326.678 185.000 331.781 182.564 C 336.439 180.341,339.988 178.386,347.953 173.656 L 349.323 172.842 353.286 174.020 C 355.466 174.668,357.850 175.376,358.583 175.595 C 359.317 175.814,360.503 176.157,361.220 176.359 L 362.523 176.725 367.136 172.133 L 371.750 167.541 378.833 162.960 C 383.887 159.692,386.981 157.817,389.632 156.416 L 393.347 154.452 393.298 153.284 L 393.250 152.116 390.037 150.843 L 386.824 149.570 383.745 146.495 L 380.667 143.420 380.667 142.127 L 380.667 140.833 378.250 140.833 L 375.833 140.833 375.833 135.449 L 375.833 130.065 375.284 129.533 L 374.734 129.000 371.367 129.000 L 368.000 129.000 368.000 119.417 L 368.000 109.833 370.303 109.833 L 372.605 109.833 374.112 108.292 C 375.114 107.267,375.689 106.533,375.829 106.104 L 376.039 105.459 372.347 101.764 L 368.655 98.069 372.536 94.880 C 375.696 92.283,377.395 90.707,381.687 86.387 L 386.956 81.083 388.511 76.833 L 390.066 72.583 391.986 70.622 L 393.905 68.661 392.080 66.830 L 390.256 65.000 387.418 65.000 L 384.580 65.000 381.136 61.542 L 377.692 58.083 377.354 56.333 C 377.168 55.371,376.637 52.548,376.174 50.059 L 375.333 45.535 375.333 41.545 L 375.333 37.554 374.208 37.041 C 373.590 36.758,371.471 35.762,369.500 34.827 L 365.917 33.126 362.458 29.690 L 359.000 26.253 359.000 25.376 L 359.000 24.500 239.500 24.500 L 120.000 24.500 120.000 15.750 C 120.000 10.938,119.944 7.001,119.875 7.003 C 119.806 7.005,118.513 7.648,117.000 8.431 M9.652 105.343 C 11.653 106.204,12.441 108.013,14.146 115.667 C 14.422 116.904,15.069 119.792,15.584 122.083 C 16.776 127.381,17.313 129.772,19.063 137.583 C 21.611 148.951,21.376 148.089,21.647 147.058 C 22.333 144.457,24.000 138.253,25.246 133.667 C 25.582 132.429,26.034 130.742,26.251 129.917 C 26.468 129.092,27.144 126.579,27.751 124.333 C 28.359 122.087,29.118 119.275,29.438 118.083 C 29.757 116.892,30.200 115.242,30.422 114.417 C 31.581 110.099,32.272 108.549,33.696 107.066 C 36.487 104.160,41.730 104.092,44.542 106.926 C 46.320 108.718,46.334 108.758,50.499 124.167 C 51.428 127.604,52.405 131.204,52.670 132.167 C 52.936 133.129,53.559 135.417,54.055 137.250 C 56.469 146.166,56.903 147.667,57.011 147.466 C 57.075 147.347,57.435 145.862,57.812 144.167 C 58.189 142.471,58.802 139.733,59.174 138.083 C 59.546 136.433,60.264 133.246,60.769 131.000 C 61.274 128.754,61.950 125.754,62.272 124.333 C 62.594 122.912,63.030 120.962,63.243 120.000 C 65.787 108.474,65.950 107.937,67.348 106.421 C 69.720 103.847,74.661 104.627,76.330 107.839 C 77.325 109.752,77.127 111.493,74.910 120.333 C 74.600 121.571,73.336 126.671,72.102 131.667 C 64.665 161.777,64.617 161.954,63.482 163.654 C 60.462 168.176,53.102 167.540,50.902 162.566 C 50.397 161.424,49.291 157.730,47.839 152.333 C 47.185 149.904,46.475 147.279,46.262 146.500 C 46.048 145.721,45.633 144.183,45.340 143.083 C 45.047 141.983,44.593 140.296,44.330 139.333 C 44.067 138.371,43.317 135.596,42.663 133.167 C 42.008 130.737,41.148 127.550,40.751 126.083 C 40.354 124.617,39.863 122.795,39.661 122.034 C 39.458 121.274,39.260 120.684,39.220 120.724 C 39.180 120.764,38.813 122.024,38.404 123.523 C 37.995 125.023,37.402 127.188,37.086 128.333 C 36.771 129.479,35.501 134.129,34.265 138.667 C 33.028 143.204,31.521 148.717,30.915 150.917 C 30.309 153.117,29.598 155.704,29.335 156.667 C 27.915 161.869,27.164 163.527,25.567 164.986 C 22.803 167.512,17.400 167.145,15.317 164.290 C 13.772 162.171,13.865 162.491,8.519 140.833 C 7.694 137.487,5.856 130.055,4.435 124.317 C 1.391 112.023,1.245 111.275,1.530 109.436 C 2.073 105.922,6.184 103.851,9.652 105.343 M165.442 104.998 C 173.641 105.636,180.046 109.337,182.709 114.977 C 185.180 120.210,183.061 125.099,178.333 125.075 C 176.162 125.064,174.910 124.186,173.500 121.685 C 171.658 118.419,171.146 117.650,170.019 116.463 C 167.916 114.247,166.028 113.594,161.750 113.606 C 155.327 113.622,151.218 116.406,151.274 120.703 C 151.326 124.608,154.090 126.301,164.833 129.007 C 177.449 132.184,182.388 134.989,184.924 140.417 C 188.510 148.089,185.691 157.845,178.536 162.521 C 170.533 167.753,156.203 168.124,147.964 163.312 C 138.671 157.885,135.569 145.082,143.250 143.860 C 146.406 143.358,148.157 144.724,150.053 149.167 C 152.768 155.526,155.981 157.749,162.417 157.717 C 169.633 157.682,174.250 154.281,174.250 149.000 C 174.250 143.923,171.881 142.198,161.303 139.571 C 146.746 135.957,141.574 132.313,140.253 124.742 C 138.060 112.168,148.853 103.708,165.442 104.998 M322.250 105.008 C 326.033 105.552,327.749 107.540,330.585 114.667 C 332.027 118.291,333.435 121.775,336.747 129.917 C 337.456 131.658,338.673 134.658,339.452 136.583 C 340.231 138.508,341.280 141.096,341.784 142.333 C 344.422 148.814,344.990 150.215,346.366 153.644 C 348.729 159.532,349.038 161.214,348.123 163.209 C 346.531 166.676,341.850 167.797,339.140 165.361 C 338.079 164.407,336.791 161.802,334.843 156.667 C 334.095 154.696,333.328 152.690,333.139 152.208 L 332.795 151.333 320.665 151.333 C 309.268 151.333,308.529 151.351,308.422 151.625 C 308.360 151.785,307.711 153.529,306.980 155.500 C 303.631 164.531,302.906 165.797,300.728 166.430 C 297.028 167.506,293.173 164.834,293.168 161.191 C 293.166 159.501,293.431 158.606,295.409 153.605 C 296.357 151.210,297.620 148.012,298.217 146.500 C 298.813 144.987,299.878 142.287,300.583 140.500 C 301.289 138.712,302.354 136.012,302.950 134.500 C 303.546 132.987,304.746 129.950,305.616 127.750 C 309.066 119.028,309.989 116.687,310.576 115.167 C 313.133 108.536,314.201 106.934,316.917 105.648 C 318.485 104.906,320.152 104.706,322.250 105.008 M127.333 106.288 C 130.793 107.691,131.411 112.228,128.423 114.287 L 127.630 114.833 112.398 114.833 L 97.167 114.833 97.169 135.208 C 97.171 146.415,97.230 155.674,97.300 155.786 C 97.399 155.941,100.888 155.999,112.423 156.036 C 126.971 156.083,127.441 156.094,128.230 156.417 C 132.547 158.184,132.219 164.246,127.744 165.411 C 126.320 165.782,91.700 165.792,89.953 165.421 C 87.690 164.942,86.381 163.852,85.645 161.833 L 85.250 160.750 85.250 135.667 L 85.250 110.583 85.649 109.592 C 86.436 107.640,88.172 106.364,90.503 106.026 C 91.132 105.935,98.857 105.879,109.000 105.893 L 126.417 105.917 127.333 106.288 M237.156 106.010 C 243.343 107.014,243.486 114.666,237.340 115.832 C 236.833 115.928,233.440 116.000,229.394 116.000 L 222.333 116.000 222.331 138.458 C 222.328 162.976,222.362 162.066,221.376 163.878 C 219.156 167.957,212.660 167.467,210.833 163.083 L 210.417 162.083 210.372 139.042 L 210.328 116.000 203.278 116.000 C 199.015 116.000,195.849 115.930,195.270 115.823 C 189.296 114.719,189.370 107.017,195.364 106.020 C 196.666 105.803,235.824 105.794,237.156 106.010 M279.000 106.219 C 288.573 107.620,293.809 112.954,294.492 122.000 C 295.105 130.105,292.065 136.528,286.177 139.569 C 281.609 141.928,279.028 142.352,268.625 142.454 L 261.000 142.529 261.000 151.690 C 261.000 161.858,260.954 162.392,259.950 163.956 C 256.768 168.910,249.857 166.999,249.013 160.932 C 248.786 159.305,248.768 113.248,248.993 111.692 C 249.498 108.196,251.189 106.475,254.583 105.998 C 256.419 105.741,277.006 105.927,279.000 106.219 M261.040 124.125 L 261.083 133.250 265.333 133.301 C 278.571 133.458,283.236 130.495,282.160 122.613 C 281.333 116.560,278.180 115.016,266.624 115.005 L 260.997 115.000 261.040 124.125 M319.526 120.542 C 319.036 121.940,318.345 123.871,317.990 124.833 C 317.635 125.796,316.849 127.971,316.242 129.667 C 314.139 135.542,313.282 137.926,312.560 139.907 C 312.160 141.002,311.833 141.996,311.833 142.116 C 311.833 142.292,313.509 142.333,320.667 142.333 C 325.525 142.333,329.500 142.303,329.500 142.266 C 329.500 142.229,328.445 139.323,327.155 135.808 C 325.865 132.293,324.446 128.404,324.001 127.167 C 321.426 120.003,320.665 118.000,320.521 118.000 C 320.464 118.000,320.016 119.144,319.526 120.542 M115.731 125.428 L 118.250 130.034 122.833 132.534 C 125.354 133.909,127.471 135.084,127.537 135.145 C 127.603 135.206,125.656 136.343,123.211 137.670 C 117.750 140.635,118.493 139.896,115.578 145.250 C 114.230 147.725,113.107 149.773,113.082 149.802 C 113.029 149.861,112.795 149.447,109.935 144.235 L 107.824 140.386 103.161 137.845 C 100.596 136.448,98.535 135.244,98.581 135.171 C 98.626 135.097,100.722 133.922,103.238 132.560 L 107.813 130.083 110.320 125.489 C 112.865 120.826,112.995 120.606,113.133 120.745 C 113.176 120.787,114.345 122.895,115.731 125.428 " stroke="none" fill="#fbfbfb" fill-rule="evenodd"></path><path id="path3" d="M122.083 1.055 C 121.167 1.539,118.842 2.747,116.917 3.740 C 114.992 4.733,112.592 5.974,111.583 6.499 C 110.575 7.024,108.400 8.148,106.750 8.998 C 105.100 9.847,103.075 10.898,102.250 11.333 C 101.425 11.768,99.250 12.893,97.417 13.833 C 95.583 14.773,93.408 15.898,92.583 16.334 C 91.758 16.769,89.921 17.724,88.500 18.456 C 87.079 19.189,84.285 20.629,82.292 21.658 L 78.667 23.527 78.667 106.347 L 78.667 189.167 203.181 189.167 L 327.695 189.167 330.889 187.644 C 332.646 186.807,335.133 185.620,336.417 185.007 C 337.700 184.394,339.462 183.478,340.333 182.971 C 341.204 182.464,343.679 181.016,345.833 179.754 C 347.988 178.492,349.825 177.457,349.917 177.453 C 350.056 177.448,360.428 180.485,362.833 181.235 L 363.583 181.469 368.833 176.252 L 374.083 171.035 378.417 168.241 C 382.972 165.303,385.489 163.673,386.980 162.694 C 387.473 162.371,390.023 160.967,392.646 159.574 L 397.417 157.043 397.417 153.156 L 397.417 149.269 393.334 147.633 L 389.251 145.997 387.042 143.792 L 384.833 141.588 384.833 139.127 L 384.833 136.667 382.500 136.667 L 380.167 136.667 380.167 132.622 L 380.167 128.578 378.289 126.706 L 376.411 124.833 374.289 124.833 L 372.167 124.833 372.167 119.417 L 372.167 114.000 373.294 114.000 L 374.421 114.000 376.774 111.625 L 379.127 109.250 379.980 107.029 C 380.449 105.808,380.833 104.687,380.833 104.538 C 380.833 104.389,379.521 102.965,377.917 101.372 C 376.313 99.780,375.005 98.426,375.010 98.363 C 375.016 98.301,375.811 97.612,376.777 96.833 C 377.742 96.054,381.225 92.741,384.517 89.471 L 390.502 83.525 391.239 81.554 C 391.645 80.470,392.362 78.533,392.832 77.250 L 393.687 74.917 396.800 71.792 L 399.914 68.666 396.000 64.750 L 392.086 60.833 389.249 60.833 L 386.412 60.833 383.974 58.375 L 381.535 55.917 380.643 51.250 L 379.751 46.583 379.667 40.771 L 379.583 34.959 376.746 33.605 C 375.186 32.860,372.711 31.690,371.246 31.006 L 368.583 29.762 365.875 27.096 L 363.167 24.430 363.167 22.382 L 363.167 20.333 243.667 20.333 L 124.167 20.333 124.167 10.250 C 124.167 2.292,124.123 0.168,123.958 0.171 C 123.844 0.174,123.000 0.572,122.083 1.055 M120.000 15.750 L 120.000 24.500 239.500 24.500 L 359.000 24.500 359.000 25.376 L 359.000 26.253 362.458 29.690 L 365.917 33.126 369.500 34.827 C 371.471 35.762,373.590 36.758,374.208 37.041 L 375.333 37.554 375.333 41.545 L 375.333 45.535 376.174 50.059 C 376.637 52.548,377.168 55.371,377.354 56.333 L 377.692 58.083 381.136 61.542 L 384.580 65.000 387.418 65.000 L 390.256 65.000 392.080 66.830 L 393.905 68.661 391.986 70.622 L 390.066 72.583 388.511 76.833 L 386.956 81.083 381.687 86.387 C 377.395 90.707,375.696 92.283,372.536 94.880 L 368.655 98.069 372.347 101.764 L 376.039 105.459 375.829 106.104 C 375.689 106.533,375.114 107.267,374.112 108.292 L 372.605 109.833 370.303 109.833 L 368.000 109.833 368.000 119.417 L 368.000 129.000 371.367 129.000 L 374.734 129.000 375.284 129.533 L 375.833 130.065 375.833 135.449 L 375.833 140.833 378.250 140.833 L 380.667 140.833 380.667 142.127 L 380.667 143.420 383.745 146.495 L 386.824 149.570 390.037 150.843 L 393.250 152.116 393.298 153.284 L 393.347 154.452 389.632 156.416 C 386.981 157.817,383.887 159.692,378.833 162.960 L 371.750 167.541 367.136 172.133 L 362.523 176.725 361.220 176.359 C 360.503 176.157,359.317 175.814,358.583 175.595 C 357.850 175.376,355.466 174.668,353.286 174.020 L 349.323 172.842 347.953 173.656 C 339.988 178.386,336.439 180.341,331.781 182.564 L 326.678 185.000 204.756 185.000 L 82.833 185.000 82.834 105.542 L 82.835 26.083 84.792 25.093 C 85.869 24.549,89.225 22.817,92.250 21.246 C 97.813 18.356,105.524 14.362,111.167 11.449 C 112.862 10.573,115.487 9.215,117.000 8.431 C 118.513 7.648,119.806 7.005,119.875 7.003 C 119.944 7.001,120.000 10.938,120.000 15.750 " stroke="none" fill="#7c7d85" fill-rule="evenodd"></path><path id="path4" d="M112.942 120.780 C 112.879 120.843,111.699 122.962,110.320 125.489 L 107.813 130.083 103.238 132.560 C 100.722 133.922,98.626 135.097,98.581 135.171 C 98.535 135.244,100.596 136.448,103.161 137.845 L 107.824 140.386 109.935 144.235 C 112.795 149.447,113.029 149.861,113.082 149.802 C 113.107 149.773,114.230 147.725,115.578 145.250 C 118.493 139.896,117.750 140.635,123.211 137.670 C 125.656 136.343,127.603 135.206,127.537 135.145 C 127.471 135.084,125.354 133.909,122.833 132.534 L 118.250 130.034 115.731 125.428 C 113.000 120.437,113.107 120.615,112.942 120.780 " stroke="none" fill="#ffd700" fill-rule="evenodd"></path></g></svg>